<?xml version="1.0" encoding="UTF-8"?>
<svg width="260px" height="130px" viewBox="0 0 260 130" version="1.1" xmlns="http://www.w3.org/2000/svg" xmlns:xlink="http://www.w3.org/1999/xlink">
    <title>Artboard</title>
    <g id="Artboard" stroke="none" stroke-width="1" fill="none" fill-rule="evenodd">
        <g id="CK" transform="translate(30.000000, 49.000000)" fill="#1D1D1B" fill-rule="nonzero">
            <path d="M87.5039002,5.82527301 L84.274571,5.82527301 L84.274571,2.15600624 L87.5039002,2.15600624 L87.5039002,5.82527301 Z M87.4664587,30.474259 L84.3120125,30.474259 L84.3120125,9.49765991 L87.4664587,9.49765991 L87.4664587,30.474259 Z" id="Shape"></path>
            <path d="M94.449298,30.4836193 L91.2948518,30.4836193 L91.2948518,9.49765991 L94.449298,9.49765991 L94.449298,13.0078003 C94.8517941,11.8564743 96.6833073,9.01716069 101.032761,9.01716069 C106.898596,9.01716069 109.650546,13.326053 109.650546,18.6333853 L109.650546,30.4898596 L106.458658,30.4898596 L106.458658,18.7207488 C106.458658,14.7706708 104.343214,12.0156006 100.5117,12.0156006 C96.6801872,12.0156006 94.449298,14.8486739 94.449298,18.8798752 L94.449298,30.4836193 Z" id="Path"></path>
            <polygon id="Path" points="127.965679 16.7581903 124.180967 21.0265211 124.180967 30.4836193 120.702028 30.4836193 120.702028 0.55850234 124.180967 0.55850234 124.180967 16.5179407 138.221529 0.55850234 142.371295 0.55850234 130.358814 14.0842434 142.371295 30.4836193 138.380655 30.4836193"></polygon>
            <polygon id="Path" points="147.316693 30.4836193 144.165367 30.4836193 144.165367 0 147.316693 0"></polygon>
            <path d="M160.99844,30.9641186 C154.851794,30.9641186 150.305772,26.2152886 150.305772,19.9906396 C150.305772,13.7659906 154.892356,9.01716069 160.914197,9.01716069 C167.060842,9.01716069 171.647426,13.925117 171.4883,20.7893916 L153.51014,20.7893916 C153.74727,24.8174727 156.820593,28.0093604 160.99844,28.0093604 C165.176287,28.0093604 167.23869,25.5132605 168.059282,23.7410296 L171.213729,23.7410296 C170.421217,26.6146646 167.307332,30.9641186 160.99844,30.9641186 Z M153.697348,17.9968799 L168.099844,17.9968799 C167.475819,14.8424337 165.107644,11.9313443 160.923557,11.9313443 C157.360755,11.9246981 154.31157,14.4863295 153.703588,17.9968799 L153.697348,17.9968799 Z" id="Shape"></path>
            <path d="M177.762871,5.82527301 L174.530421,5.82527301 L174.530421,2.15600624 L177.762871,2.15600624 L177.762871,5.82527301 Z M177.722309,30.474259 L174.570983,30.474259 L174.570983,9.49765991 L177.722309,9.49765991 L177.722309,30.474259 Z" id="Shape"></path>
            <path d="M184.711388,30.4836193 L181.560062,30.4836193 L181.560062,9.49765991 L184.711388,9.49765991 L184.711388,13.0078003 C185.110764,11.850234 186.945398,9.01716069 191.294852,9.01716069 C197.160686,9.01716069 199.915757,13.326053 199.915757,18.6333853 L199.915757,30.4898596 L196.717629,30.4898596 L196.717629,18.7207488 C196.717629,14.7706708 194.602184,12.0156006 190.770671,12.0156006 C186.939158,12.0156006 184.711388,14.8424337 184.711388,18.8736349 L184.711388,30.4836193 Z" id="Path"></path>
            <path d="M3.59126365,15.5600624 C3.59126365,22.5429017 8.61778471,27.7691108 15.201248,27.7691108 C21.3478939,27.7691108 24.3806552,23.9781591 25.3385335,22.1029641 L28.8081123,22.1029641 C27.9313573,24.9765991 23.7815913,31.0015612 15.201248,31.0015612 C6.55226209,31.0046802 0,24.4586583 0,15.5226209 C0,6.70202808 6.62402496,0.0405616225 15.201248,0.0405616225 C23.7784711,0.0405616225 27.9313573,5.94383775 28.8892356,9.01716069 L25.2979719,9.01716069 C24.2215289,7.06396256 21.2418097,3.27301092 15.201248,3.27301092 C8.61778471,3.27301092 3.59126365,8.49921997 3.59126365,15.5600624 Z" id="Path"></path>
            <path d="M41.2979719,30.9641186 C35.3135725,30.9641186 30.6053042,26.2558502 30.6053042,19.9906396 C30.6053042,13.725429 35.3135725,9.01716069 41.2979719,9.01716069 C46.0468019,9.01716069 48.2808112,12.049922 48.9204368,13.4477379 L48.9204368,9.49765991 L52.0717629,9.49765991 L52.0717629,30.4836193 L48.9204368,30.4836193 L48.9204368,26.5210608 C48.2402496,27.9719189 46.0468019,30.9641186 41.2979719,30.9641186 Z M48.9609984,19.9906396 C48.9609984,15.4820593 45.7691108,12.0093604 41.4196568,12.0093604 C37.0702028,12.0093604 33.8377535,15.4414977 33.8377535,19.9906396 C33.8377535,24.5397816 37.0296412,27.9719189 41.4196568,27.9719189 C45.8096724,27.9719189 48.9609984,24.49922 48.9609984,19.9906396 L48.9609984,19.9906396 Z" id="Shape"></path>
            <polygon id="Path" points="59.0546022 30.4836193 55.9032761 30.4836193 55.9032761 0 59.0546022 0"></polygon>
            <polygon id="Path" points="71.5850234 27.25117 78.2464899 9.49765991 81.7191888 9.49765991 73.5787832 30.4836193 69.5881435 30.4836193 61.4477379 9.49765991 64.9204368 9.49765991"></polygon>
        </g>
    </g>
</svg>