<?xml version="1.0" encoding="UTF-8"?>
<svg width="260px" height="130px" viewBox="0 0 260 130" version="1.1" xmlns="http://www.w3.org/2000/svg" xmlns:xlink="http://www.w3.org/1999/xlink">
    <title>Artboard Copy</title>
    <g id="Artboard-Copy" stroke="none" stroke-width="1" fill="none" fill-rule="evenodd">
        <g id="Disney-logo" transform="translate(30.000000, 24.000000)" fill="#000000" fill-rule="nonzero">
            <path d="M98.5809524,7.61904762 C100.023654,7.73031863 101.437193,8.08450829 102.761905,8.66666667 C104.253132,9.45643116 105.151873,11.0385127 105.066667,12.7238095 C104.858956,14.8308903 104.096571,16.8452947 102.857143,18.5619048 C100.647619,21.5333333 97.752381,23.3238095 94.2857143,24.9047619 C91.0847474,26.2096802 87.5584824,26.4924468 84.1904762,25.7142857 C83.7333333,26.3238095 82.6666667,27.9714286 81.247619,27.7333333 C79.6571429,26.8952381 79.6190476,24.8761905 79.7809524,23.152381 C78.2571429,21.4952381 77.047619,19.2380952 77.7714286,16.7333333 C78.2864676,14.128162 79.6985115,11.7859888 81.7619048,10.1142857 C84.5004311,7.94050673 87.7377613,6.4838718 91.1809524,5.87619048 C93.8571429,5.33333333 96.9714286,5.43809524 98.5809524,7.61904762 Z M81.1428571,16.9809524 C81.0779229,17.7086672 81.4523977,18.4051902 82.0952381,18.752381 C83.9960909,15.192391 86.7846519,12.1840258 90.1904762,10.0190476 C86.4571429,9.67619048 81.4857143,12.9238095 81.1428571,16.9809524 Z M99.7238095,11.7333333 C94.2,10.8380952 90.4761905,15.2380952 87.8095238,18.3238095 C87.1130596,19.1305651 86.6083702,20.0845908 86.3333333,21.1142857 C86.9809524,21.8095238 88.847619,21.6095238 90.1428571,21.4 C94.5238095,20.6666667 99.6666667,18.952381 101.247619,14.8 C101.508402,13.96356 101.325352,13.0518973 100.761905,12.3809524 L99.7238095,11.7333333 Z" id="Shape"></path>
            <path d="M141.6,29.5238095 C144.029645,33.1743956 145.653033,37.3010485 146.361905,41.6285714 L146.361905,41.6285714 C146.542857,45.6190476 147.047619,49.4 145.161905,52.8666667 C144.295238,54.4952381 142.457143,56.9428571 139.857143,55.9428571 C137.342857,54.552381 135.895238,51.5904762 134.4,49.1714286 C132.904762,46.752381 131.333333,43.7809524 129.92381,41.1238095 C129.761905,40.847619 129.361905,40.4571429 129.142857,40.7142857 C129.011483,41.1136465 128.947121,41.5319995 128.952381,41.952381 C128.733333,46.1619048 128.47619,49.9714286 128.314286,54.0571429 C128.28072,55.1730576 127.916058,56.2537838 127.266667,57.1619048 C126.516397,57.4877792 125.664555,57.4877792 124.914286,57.1619048 C122.619048,56 122.761905,53.1333333 122.780952,50.647619 C122.971429,48.7428571 123.085714,46.6571429 123.390476,44.7142857 C123.84234,40.897903 124.753708,37.150104 126.104762,33.552381 C126.380344,32.8237811 126.961763,32.2528073 127.695238,31.9904762 C129.2,31.6761905 130.457143,33.752381 130.990476,34.4285714 C134.219048,38.5333333 136.92381,43 140.009524,47.3714286 C140.409524,47.9333333 140.590476,48.5142857 141.047619,48.3238095 C141.504762,48.1333333 141.142857,45.3809524 140.866667,43.7619048 C140.488436,41.3692519 139.960414,39.0026955 139.285714,36.6761905 C138.343094,33.9766324 137.663742,31.1922448 137.257143,28.3619048 C137.114646,27.6921325 137.085671,27.0031813 137.171429,26.3238095 C137.361905,25.7047619 138.12381,25.8190476 138.609524,26.0095238 C140.047619,26.6666667 140.895238,28.3619048 141.6,29.5238095 Z" id="Path"></path>
            <path d="M171.428571,33.3904762 C171.8,33.9238095 172.47619,34.8571429 172.142857,35.2952381 C170.447619,37.2 167.580952,36.3047619 165.342857,36.5428571 L159.628571,36.7142857 C159.038095,36.9047619 158.961905,37.5142857 158.742857,37.9809524 C158.295224,38.9063415 158.073286,39.9246465 158.095238,40.952381 L158.466667,41.1809524 C161.219048,41.3238095 164.133333,40.752381 166.695238,41.5333333 C167.12381,41.7333333 167.257143,43.4380952 167.180952,44.447619 C166.904762,45.4 164.07619,45.4 162.542857,45.4857143 C160.552381,45.5714286 158.666667,45.4857143 156.752381,45.552381 C156.352381,46.2285714 155.847619,47.2190476 155.428571,48.0380952 C155.009524,48.8571429 154.095238,50.247619 154.942857,51.4666667 C155.47619,52.247619 162.466667,49.3904762 166.771429,49.7142857 C167.342857,49.7142857 168.438095,51.752381 168.361905,53.0952381 C168.240432,53.4390816 168.030141,53.7446612 167.752381,53.9809524 C166.714286,54.7714286 160.447619,58.7428571 156.07619,59.2095238 C153.590476,59.4761905 151.8,59.2095238 149.809524,56.6571429 C148.263011,54.5497643 147.833508,51.8236574 148.657143,49.3428571 C149.295238,47.5428571 150.285714,45.9047619 150.914286,43.9714286 C150.790268,43.6624789 150.691531,43.3439729 150.619048,43.0190476 C150.685714,42.5904762 150.447619,41.9904762 150.914286,41.752381 C151.413993,41.511407 151.92946,41.3045837 152.457143,41.1333333 C153.27619,40.352381 153.495238,38.952381 153.92381,37.8761905 C154.12786,37.4254251 154.299718,36.9607698 154.438095,36.4857143 C153.361905,36.0571429 151.790476,36.0380952 150.628571,35.4380952 C149.67619,34.9904762 148.552381,33.8952381 149.038095,32.7238095 C150.514286,31.5142857 155.866667,31.3714286 159.685714,30.8190476 C162.250664,30.3589105 164.851248,30.1262602 167.457143,30.1238095 C168.176155,30.1480992 168.85823,30.4482123 169.361905,30.9619048 L171.428571,33.3904762 Z" id="Path"></path>
            <path d="M119.485714,30.8761905 C120.274087,31.1090688 121.034269,31.4284729 121.752381,31.8285714 C122.019048,32.6952381 121.352381,33.6190476 120.8,34.2952381 C119.524923,34.9289741 118.119101,35.255151 116.695238,35.247619 C111.704762,35.6095238 106.609524,36.0285714 101.704762,36.7904762 C100.353832,37.0587132 99.044144,37.5038151 97.8095238,38.1142857 C97.7047619,38.3238095 98.0190476,38.552381 98.1809524,38.6571429 C103.819048,40.0666667 110.12381,39.6666667 115.8,40.9619048 C118.92381,41.9142857 120.619048,44.9333333 121.07619,47.8952381 C121.204743,49.945007 120.593026,51.9727961 119.352381,53.6095238 C114.866667,57.9047619 107.742857,58.0285714 101.914286,56.352381 C99.0571429,55.4761905 95.5047619,53.4952381 94.8,49.9714286 C94.5815749,49.1456606 94.7689752,48.265233 95.3047619,47.6 C96.1061747,46.6790885 97.075882,45.9194844 98.1619048,45.3619048 C102.438095,43.4571429 107.419048,45.1428571 111.609524,46.1238095 C112.619048,46.352381 113.933333,46.552381 113.819048,47.4095238 C113.533333,48.4952381 112.238095,48.7809524 111.342857,49.2285714 C107.371429,51.1333333 102.942857,47.4095238 100.371429,47.4 C99.2190476,47.4761905 98.0095238,47.6761905 97.4380952,48.847619 C97.2331567,49.2922153 97.3117321,49.8160514 97.6380952,50.1809524 C99.0857143,51.6666667 101.447619,51.7619048 103.104762,51.9047619 C106.466667,52.0952381 109.590476,51.1238095 112.533333,50.2095238 C114.219048,49.6952381 116.342857,48.9142857 116.942857,47.0857143 C117.304762,45.7142857 114.590476,44.5142857 112.390476,43.9333333 C107.142857,42.9142857 101.542857,44.4 96.4190476,42.6095238 C95.2190476,42.1714286 93.2857143,41.3619048 93.2190476,39.6952381 C93.447619,37.3142857 94.0952381,34.7619048 96.2095238,33.5142857 C100.428571,31.047619 105.304762,30.152381 110.238095,29.9428571 C113.350579,29.7637554 116.471788,30.0787693 119.485714,30.8761905 Z" id="Path"></path>
            <path d="M88.7238095,35.9428571 C88.8405114,36.7502684 88.8978081,37.5651548 88.8952381,38.3809524 C89.0666667,44.3714286 89.7428571,50.6952381 89.3428571,56.6 C89.2285714,57.4095238 88.4666667,57.8 87.8095238,58.0666667 C86.5859945,58.2206665 85.3435207,58.0464572 84.2095238,57.5619048 C82.9619048,55.847619 83.0380952,53.752381 82.8761905,51.5428571 C82.6907253,45.0102494 83.2821733,38.4787446 84.6380952,32.0857143 C84.8285714,31.4380952 84.8380952,30.5428571 85.6857143,30.4 C87.8666667,31.3333333 88.8190476,33.4571429 88.7238095,35.9428571 Z" id="Path"></path>
            <path d="M182.704762,29.6952381 C182.835363,30.5227232 182.709049,31.3703562 182.342857,32.1238095 C181.819048,33.3333333 181.314286,34.2857143 180.809524,35.2380952 C179.47619,37.952381 178.066667,40.6380952 177,43.352381 C176.47619,44.8761905 175.733333,46.9619048 176.619048,48.8095238 C176.714286,48.6 177.571429,47.3428571 177.733333,47.0952381 C180.369586,42.9757664 183.497336,39.1924037 187.047619,35.8285714 C189.038095,33.8285714 192.057143,30.4761905 195.438095,32.3714286 C196.784553,33.5805668 197.80343,35.1105194 198.4,36.8190476 C199.895238,40.2571429 199.161905,44.7333333 197.333333,47.8761905 C195.428571,51.2380952 192.961905,53.2952381 190,55.6380952 C187.380456,57.4660991 184.228654,58.3737911 181.038095,58.2190476 C180.339196,59.3794328 179.718761,60.5853034 179.180952,61.8285714 C177.666203,66.0928086 176.394323,70.4394594 175.371429,74.847619 L174.485714,80.4380952 C174.369953,80.8319462 174.048651,81.1313405 173.647619,81.2190476 C171.742857,81.4 170.438095,79.8190476 169.761905,78.9238095 C168.485388,76.5844999 167.997738,73.8957449 168.371429,71.2571429 C169.609428,65.2931518 171.50018,59.4835611 174.009524,53.9333333 C173.120554,52.2700174 172.567207,50.44818 172.380952,48.5714286 C172.047619,43.3333333 174.571429,37.7809524 177.447619,33.8571429 L177.447619,33.8571429 C178.771429,32.2571429 180.07619,30.2190476 182.047619,29.1619048 C182.295238,29.0571429 182.619048,29.4190476 182.704762,29.6952381 Z M194.533333,37.1428571 C194.390476,36.9047619 193.92381,36.7428571 193.733333,37.0571429 C190.971429,40.4761905 188.390476,43.7238095 185.590476,47.6 C184.638095,48.8952381 183.866667,49.8761905 182.733333,51.6 C182.733333,51.6 182.47619,52 184.952381,51.6952381 C187.428571,51.3904762 192,48.2857143 193.971429,45.2666667 C194.842178,43.7454754 195.313955,42.028729 195.342857,40.2761905 C195.305325,39.1851247 195.028994,38.1155614 194.533333,37.1428571 L194.533333,37.1428571 Z" id="Shape"></path>
            <path d="M46.2952381,5.83809524 C56.4010145,9.63933861 65.5169977,15.6754218 72.9619048,23.4952381 C75.9356313,26.7631215 78.3172733,30.5241178 80,34.6095238 C80.7333333,37.0952381 81.447619,39.5238095 81.0380952,42.5809524 C80.0666667,48.5714286 76.4190476,53.3333333 71.152381,56.6095238 C66.9547129,59.2669151 62.1987781,60.9163345 57.2571429,61.4285714 C51.3333333,62.2 40.0571429,61.3714286 38.6,60.7809524 C38.6488705,62.2082306 38.05458,63.5820903 36.9809524,64.5238095 C36.0285714,64.9428571 33.247619,65.3619048 32.1047619,63.5714286 C31.2318482,61.7820829 30.7082077,59.8426734 30.5619048,57.8571429 C23.4136328,54.5035795 17.1995038,49.4439703 12.4666667,43.1238095 C11.6672616,41.7121972 11.7832925,39.9605043 12.7619048,38.6666667 C17.2380952,33.9047619 23.8285714,32.6571429 30.1238095,31.6190476 C30.5564369,31.563699 30.9934518,31.5509395 31.4285714,31.5809524 C31.4360565,30.422205 31.5379813,29.2659957 31.7333333,28.1238095 C31.9164981,25.0090815 32.3078482,21.9100975 32.9047619,18.847619 C33.0190476,18.0380952 33.0666667,17.2095238 33.7809524,16.8857143 C34.8380952,16.5142857 35.7333333,18.0095238 36.2571429,19.0761905 C36.7913009,20.8096269 37.1830779,22.5837714 37.4285714,24.3809524 C37.6952381,26.6285714 37.8857143,28.8095238 38.0571429,30.7142857 L38.4380952,30.7809524 C41.5728022,30.6389593 44.7139095,30.7952174 47.8190476,31.247619 C52.247619,31.9904762 56.1047619,32.4380952 59.5714286,35.0095238 C61.4761905,36.6285714 63.1904762,38.8190476 62.4952381,41.5238095 C61.8180323,43.5771203 60.2713818,45.2282742 58.2666667,46.0380952 C56.5456496,46.3658527 54.7644148,46.0252725 53.2857143,45.0857143 L53.2857143,44.7619048 C55.1333333,43.9142857 56.7904762,42.7142857 57.0952381,40.6380952 C57.0952381,39.7714286 54.4380952,39.4190476 53.2857143,39.1809524 C49.6290369,38.2918089 45.9155009,37.6553846 42.1714286,37.2761905 C40.4285714,37.1047619 39.5047619,37.1714286 38.2190476,37.1333333 C38.4245199,39.667478 38.4976352,42.2106172 38.4380952,44.752381 C38.4380952,48.8380952 38.4380952,51.6952381 38.3714286,55.1428571 L38.8,55.2952381 C44.5142857,56.5142857 47.2571429,56.1809524 51.7809524,56.1714286 C57.5891655,55.7300873 63.186851,53.8051656 68.0380952,50.5809524 C71.2211048,48.5950454 73.2471186,45.1923357 73.4761905,41.447619 C73.9142857,38.2 71.9047619,35.0761905 70.8857143,32.1142857 C67.5223833,27.1726404 63.3343822,22.846113 58.5047619,19.3238095 C48.4857143,12.1142857 36.9619048,8.26666667 24.7619048,6.07619048 C19.4095238,5.41904762 14.2857143,4.76190476 8.57142857,5.27619048 C7.16986083,5.25372886 5.7968722,5.67362344 4.64761905,6.47619048 C4.87619048,7.1047619 5.81904762,7.42857143 6.42857143,7.77142857 C6.87619048,8.06666667 7.16190476,8.19047619 7.16190476,8.62857143 C6.4978124,9.27162038 5.59994808,9.6156297 4.67619048,9.58095238 C3.27619048,9.75238095 -0.361904762,9.77142857 0.0285714286,7.67619048 C0.451476509,5.7799727 1.44925715,4.06046407 2.88571429,2.75238095 C13.0380952,-1.55238095 25.9333333,-0.161904762 36.4571429,2.55238095 C39.7714286,3.57142857 43.1428571,4.53333333 46.2952381,5.83809524 Z M31.2095238,37.5714286 C29.6380952,37.2666667 27.8571429,37.7333333 26.2761905,37.6380952 C22.0666667,38.5428571 17.9142857,38.3809524 14.4285714,41.0761905 C14.0117283,41.6002315 14.0117283,42.3426256 14.4285714,42.8666667 C18.0784992,47.1038409 22.7593426,50.3282761 28.0190476,52.2285714 C28.8735728,52.5625945 29.7610579,52.8052163 30.6666667,52.952381 C30.6666667,48.5047619 30.9333333,44.2571429 31.2,39.4285714 C31.2387059,38.810216 31.2418857,38.1901485 31.2095238,37.5714286 Z" id="Shape"></path>
        </g>
    </g>
</svg>