<?xml version="1.0" encoding="UTF-8"?>
<svg width="260px" height="130px" viewBox="0 0 260 130" version="1.1" xmlns="http://www.w3.org/2000/svg" xmlns:xlink="http://www.w3.org/1999/xlink">
    <title>Artboard Copy</title>
    <g id="Artboard-Copy" stroke="none" stroke-width="1" fill="none" fill-rule="evenodd">
        <g id="marvel-logo" transform="translate(30.000000, 24.000000)" fill-rule="nonzero">
            <rect id="Fill" fill="#ED1C24" x="0" y="0" width="199.975904" height="80.9959839"></rect>
            <path d="M169.1834,19.2958501 L169.1834,6.99866131 L134.963855,6.99866131 L129.341365,48.0829987 L123.764391,6.99866131 L111.427041,6.99866131 L112.80589,17.9759036 C111.378849,15.1566265 106.334672,6.99866131 95.2128514,6.99866131 C95.1378849,6.99866131 82.8621151,6.99866131 82.8621151,6.99866131 L82.8139224,66.8808568 L73.8179384,6.99866131 L57.6572959,6.99866131 L48.3534137,69.0361446 L48.3534137,6.99866131 L32.8862115,6.99866131 L27.3092369,41.8473896 L21.8795181,6.99866131 L6.4042838,6.99866131 L6.4042838,74.4524766 L18.5917001,74.4524766 L18.5917001,41.9384203 L24.1338688,74.4524766 L30.6104418,74.4524766 L36.0776439,41.9384203 L36.0776439,74.4524766 L59.5662651,74.4524766 L60.9906292,64.0749665 L70.4471218,64.0749665 L71.8661312,74.4524766 L94.9290495,74.4685408 L94.9451138,74.4685408 L94.9451138,74.4524766 L94.9772423,74.4524766 L94.9772423,52.5568942 L97.8018742,52.1419009 L103.654618,74.4685408 L115.585007,74.4685408 L115.585007,74.4524766 L115.617135,74.4524766 L107.941098,48.291834 C111.828648,45.4109772 116.227577,38.0990629 115.054886,31.1057564 L115.054886,31.1057564 C115.068273,31.1941098 122.307898,74.4953146 122.307898,74.4953146 L136.497992,74.4551539 L146.184739,13.3119143 L146.184739,74.4524766 L169.1834,74.4524766 L169.1834,62.3212851 L158.259705,62.3212851 L158.259705,46.854083 L169.1834,46.854083 L169.1834,34.5381526 L158.259705,34.5381526 L158.259705,19.2958501 L169.1834,19.2958501 Z M62.4230254,53.3788487 L65.7697456,24.5381526 L69.2503347,53.3788487 L62.4230254,53.3788487 Z M97.8420348,40.064257 C96.949569,40.5008669 95.9707394,40.7323098 94.9772423,40.7416332 L94.9772423,19.0548862 L95.0468541,19.0548862 C95.9973226,19.0548862 103.111111,19.3226238 103.111111,29.7831325 C103.103079,35.2342704 100.682731,38.6827309 97.8420348,40.064257 L97.8420348,40.064257 Z M193.726908,62.3105756 L193.726908,74.4310576 L171.287818,74.4310576 L171.287818,6.98795181 L183.370817,6.98795181 L183.370817,62.3105756 L193.726908,62.3105756 Z" id="Marvel" fill="#FFFFFF"></path>
        </g>
    </g>
</svg>