<?xml version="1.0" encoding="UTF-8"?>
<svg width="260px" height="130px" viewBox="0 0 260 130" version="1.1" xmlns="http://www.w3.org/2000/svg" xmlns:xlink="http://www.w3.org/1999/xlink">
    <title>Artboard</title>
    <defs>
        <filter id="filter-1">
            <feColorMatrix in="SourceGraphic" type="matrix" values="0 0 0 0 1.000000 0 0 0 0 1.000000 0 0 0 0 1.000000 0 0 0 1.000000 0"></feColorMatrix>
        </filter>
    </defs>
    <g id="Artboard" stroke="none" stroke-width="1" fill="none" fill-rule="evenodd">
        <g filter="url(#filter-1)" id="Pixar-logo">
            <g transform="translate(30.000000, 46.000000)">
                <path d="M185.875686,17.3418647 C189.711152,14.9835466 192.581353,10.928702 192.581353,7.83546618 C192.581353,4.98354662 190.97989,2.84460695 187.956124,1.64533821 C184.64351,0.329067642 179.195612,0.219378428 173.882998,0.219378428 L162.548446,0.270566728 L162.870201,2.53382084 C163.904936,2.62522852 166.976234,2.89945155 168.09872,3.0749543 C168.241316,5.10420475 168.288848,12.6983547 168.288848,14.6471664 L168.288848,17.6380256 C168.288848,22.4204753 168.244973,30.9469835 168.087751,33.3016453 C166.625229,33.5868373 163.572212,33.8647166 162.946984,33.9085923 L162.500914,36.2559415 C165.546618,35.9670932 168.734918,35.9670932 171.798903,35.9670932 C174.767824,35.9670932 177.83181,35.9890311 180.804388,36.2522852 L180.361974,33.9195612 C179.085923,33.8025594 176.340037,33.5063985 175.283364,33.308958 C175.159049,30.749543 175.063985,23.4113346 175.063985,20.1755027 C176.084095,20.1352834 177.667276,20.0146252 178.85192,19.9232176 C180.764168,22.2084095 192.859232,35.8903108 196.310786,37.583181 L199.864717,37.0164534 C194.840951,31.9817185 187.52468,20.2340037 185.875686,17.3418647 Z M180.186472,16.4972578 C178.541476,17.0755869 176.811322,17.3746564 175.067642,17.3820841 C175.067642,14.0914077 175.155393,5.60146252 175.279707,2.88117002 C182.71298,3.05301645 185.374771,6.37659963 185.374771,9.19926874 C185.374771,14.1828154 181.400366,16.0438757 180.186472,16.4972578 Z" id="Shape" fill="#1D1D1B" fill-rule="nonzero"></path>
                <path d="M153.056673,33.9451554 C151.641682,33.7513711 149.882998,33.4990859 148.606947,33.2431444 C147.045704,30.1572212 144.884826,24.7714808 142.179159,17.2248629 C140.731261,13.1627057 138.175503,5.85009141 137.290676,2.87751371 C138.113346,2.70566728 139.590494,2.511883 140.78245,2.36928702 L141.133455,0.0658135283 C138.131627,0.285191956 135.122486,0.255941499 132.095064,0.255941499 C129.711152,0.255941499 127.305302,0.175502742 124.936015,0 L125.045704,2.28884826 C125.919561,2.40219378 127.744059,2.65447898 128.702011,2.82998172 C127.261426,6.58135283 118.702011,29.3308958 116.745887,33.1042048 C115.477148,33.3711152 113.645338,33.6270567 112.383912,33.7513711 L112.043876,36.0731261 C114.062157,35.8866545 116.120658,35.8171846 118.164534,35.8171846 C120.884826,35.8171846 123.956124,35.9561243 126.676417,36.1243144 L126.244973,33.809872 C125.02011,33.6745887 123.272395,33.4442413 122.223035,33.213894 C122.819013,29.6087751 124.895795,22.321755 125.469835,20.5521024 C127.583181,20.3107861 133.678245,20.0511883 135.926874,20.0255941 C136.745887,21.8976234 139.45521,29.9561243 140.577697,33.2943327 C139.133455,33.5612431 137.140768,33.7440585 135.945155,33.8427788 L135.382084,36.1718464 C138.30713,35.9305302 141.297989,35.9012797 144.197441,35.9012797 C147.005484,35.9012797 150.585009,35.8354662 153.400366,36.3254113 L153.056673,33.9451554 Z M126.563071,17.0457038 C127.012797,15.7659963 127.853748,13.4990859 128.756856,11.1078611 L128.778793,11.0457038 C129.510055,9.08592322 130.314442,6.89945155 130.972578,5.07129799 C131.612431,7.023766 132.581353,9.86106033 133.458867,12.4351005 L133.484461,12.5045704 C134.095064,14.2888483 134.676417,15.9890311 135.093236,17.2577697 L126.563071,17.0457038 Z" id="Shape" fill="#1D1D1B" fill-rule="nonzero"></path>
                <path d="M39.3126143,36.2413163 L39.7586837,33.904936 C40.4314442,33.8647166 43.5429616,33.4990859 44.8775137,33.2797075 C45.0420475,30.5776965 45.0859232,22.3948812 45.0859232,17.8829982 L45.0859232,14.9908592 C45.0859232,13.8025594 45.0457038,5.59780622 44.8848263,3.0786106 C43.583181,2.8702011 40.5338208,2.511883 39.809872,2.43510055 L39.2650823,0.0767824497 C42.6179159,0.442413163 46.2595978,0.380255941 49.5978062,0.380255941 C52.3401555,0.434278422 55.0833307,0.329288183 57.8135283,0.0658135283 L57.2468007,2.43510055 C56.5155393,2.50822669 53.4552102,2.89945155 52.1535649,3.10786106 C52.0365631,4.57038391 51.9744059,8.63619744 51.9744059,15.2358318 L51.9744059,18.2815356 C51.9744059,26.1170018 52.0438757,31.6709324 52.1645338,33.3016453 C53.5210238,33.5575868 56.416819,33.8464351 57.2431444,33.9305302 L57.8062157,36.2705667 C54.4424132,35.9561243 50.88117,35.9963437 47.5429616,35.9963437 C44.786106,35.9890311 42.0255941,36.0621572 39.3126143,36.2413163 Z" id="Path" fill="#1D1D1B" fill-rule="nonzero"></path>
                <path d="M91.4369287,0.1023766 C93.8720293,0.31809872 96.3254113,0.380255941 98.7824497,0.380255941 C100.658135,0.365630713 102.522852,0.274223035 104.398537,0.109689214 L104.182815,2.34734918 C103.652651,2.48628885 101.382084,3.00182815 100.771481,3.13345521 C99.8281536,3.74040219 93.0676417,11.8171846 90.2669104,15.3016453 C95.5612431,22.7531993 100.621572,30.1755027 106.073126,37.5100548 L102.74223,38.2998172 C98.88117,35.3747715 95.2285192,31.3820841 92.1060329,27.7513711 L92.1060329,27.7513711 C89.4990859,24.691042 87.2833638,21.8683729 86.0255941,20.3619744 C83.0791664,24.5377131 80.3763134,28.8801017 77.9305302,33.3674589 C78.9835466,33.5685558 80.8884826,33.8500914 81.6197441,33.9305302 L81.9414991,36.1864717 C80.8263254,36.1389397 76.8226691,35.9890311 74.0402194,35.9890311 C71.8756856,35.9890311 69.7879342,36.0914077 67.630713,36.2632541 L68.4058501,33.9378428 C69.523207,33.8188502 70.625692,33.5873284 71.6965265,33.2468007 C73.261426,32.2998172 81.261426,21.4771481 84.0146252,17.7879342 C82.6508227,16.0402194 80.9689214,13.7659963 79.3382084,11.535649 C76.8043876,8.09140768 74.2010969,4.54844607 72.8446069,3.08957952 C72.1974406,2.89213894 70.2047532,2.52285192 69.440585,2.38391225 L69.1261426,0.0329067642 C71.7184644,0.489945155 74.6106033,0.36928702 77.1700183,0.36928702 C80.1279707,0.36928702 83.0968921,0.26691042 86.0438757,0.12797075 L85.3820841,2.43510055 C84.1389397,2.5630713 82.6435101,2.7678245 81.7074954,2.96160878 C83.0493601,5.15539305 86.7787934,10.6398537 88.3510055,12.7166362 C89.8866545,10.6288848 93.4698355,5.54661792 94.9323583,2.93601463 C94.0840951,2.74954296 92.3729433,2.48263254 91.8464351,2.40585009 L91.4076782,0.0987202925 L91.4369287,0.1023766 Z" id="Path" fill="#1D1D1B" fill-rule="nonzero"></path>
                <path d="M30.0987203,8.24497258 C30.0987203,6.89945155 29.5904936,3.56124314 24.8921389,1.61974406 C22.4351005,0.599634369 18.3583181,0.146252285 11.678245,0.146252285 C10.4277879,0.146252285 7.65630713,0.146252285 5.21755027,0.175502742 L0.0475319927,0.197440585 L0.365630713,2.46435101 C1.40402194,2.55210238 4.46435101,2.80438757 5.57952468,3.05301645 C5.7440585,5.488117 5.78062157,13.5502742 5.78062157,14.7202925 L5.78062157,16.6837294 C5.78062157,20.3400366 5.7440585,30.2998172 5.57586837,33.308958 C4.54478976,33.4734918 1.46252285,33.8464351 0.438756856,33.9670932 L0,36.2705667 C3.14076782,36.0365631 6.34369287,36.0036563 9.50639854,36.0036563 C12.797075,36.0036563 16.1937843,36.0548446 19.4808044,36.2632541 L18.9323583,33.9488117 C17.6563071,33.8244973 14.2486289,33.4954296 12.7787934,33.2943327 C12.6288848,30.786106 12.5776965,21.2760512 12.5776965,16.928702 L12.5776965,14.8702011 C12.5776965,10.559415 12.6288848,4.95795247 12.7678245,2.91042048 C15.7221207,2.96892139 18.1937843,3.34186472 19.3784278,3.91590494 C21.678245,5.04204753 22.9945155,7.26508227 22.9945155,10.0109689 C22.9945155,15.8903108 17.9707495,18.190128 14.5850091,19.0201097 L14.2815356,21.5393053 C16.3656307,21.2321755 22.9579525,20.0073126 26.5228519,16.5009141 C28.928702,14.095064 30.0987203,11.3967093 30.0987203,8.24497258 Z" id="Path" fill="#1D1D1B" fill-rule="nonzero"></path>
            </g>
        </g>
    </g>
</svg>