<?xml version="1.0" encoding="UTF-8"?>
<svg width="260px" height="130px" viewBox="0 0 260 130" version="1.1" xmlns="http://www.w3.org/2000/svg" xmlns:xlink="http://www.w3.org/1999/xlink">
    <title>Artboard</title>
    <g id="Artboard" stroke="none" stroke-width="1" fill="none" fill-rule="evenodd">
        <g id="waverly-black" transform="translate(30.000000, 48.000000)" fill="#1D1D1B" fill-rule="nonzero">
            <path d="M43.806253,3.30177149 L43.902439,2.26131188 L32.9086319,2.26131188 L32.9086319,3.30177149 L37.5385611,3.30177149 L30.444189,26.7979506 L22.3151668,3.30177149 L26.3497822,3.30177149 L26.3497822,2.26131188 L13.499844,2.26131188 L13.499844,3.30177149 L17.2095065,3.30177149 L20.1912745,11.7034828 L16.5518018,26.0098025 L8.64894686,3.31997953 L8.64894686,3.31997953 L12.2182297,3.31997953 L12.2182297,2.27951992 L0,2.27951992 L0,3.31997953 L3.35871336,3.31997953 L14.5968851,34.4921494 C14.680073,34.6924379 14.7528625,34.7782758 14.9920278,34.7782758 C15.2010722,34.8012241 15.3946747,34.6654001 15.4443623,34.4609357 L20.864577,13.6049228 L28.3358944,34.502554 C28.421682,34.6898368 28.4866726,34.7782758 28.7206387,34.7782758 C28.9257388,34.8045623 29.1183922,34.6741942 29.1703735,34.4739414 L38.7135908,3.30177149 L43.806253,3.30177149 Z" id="Path"></path>
            <path d="M50.0677977,0.63529562 L49.4445807,0.63529562 L38.2762198,32.9161082 L34.9593496,32.9161082 L34.9593496,33.968629 L44.0364134,33.968629 L44.0364134,32.9161082 L39.4079192,32.9161082 L42.6465613,23.5960366 L53.0769708,23.5960366 L56.3834106,32.9161082 L52.1538795,32.9161082 L52.1538795,33.968629 L65.0406504,33.968629 L65.0406504,32.9161082 L61.541248,32.9161082 L50.0677977,0.63529562 Z M52.7484129,22.3961629 L42.9881573,22.3961629 L47.8330824,8.52920152 L52.7484129,22.3961629 Z" id="Shape"></path>
            <path d="M77.5881281,3.31637854 L82.1281335,3.31637854 L73.7603313,27.914429 L65.2138295,3.31374745 L69.4067951,3.31374745 L69.4067951,2.26131188 L56.097561,2.26131188 L56.097561,3.31374745 L60.1351356,3.31374745 L71.4346469,35.2499049 C71.49317,35.4568714 71.6811181,35.5981893 71.8930501,35.5946452 C72.0807983,35.5808719 72.2496221,35.4734304 72.3436839,35.3077889 L72.3695824,35.2735847 L83.2883858,3.31637854 L86.9918699,3.31637854 L86.9918699,2.26394297 L77.5881281,2.26394297 L77.5881281,3.31637854 Z" id="Path"></path>
            <path d="M113.660625,23.2305786 C113.657482,24.6673404 113.293902,26.0800526 112.603583,27.3377713 C111.316864,29.7668974 108.889585,31.479103 105.580133,32.2958146 C104.155085,32.6660922 102.168892,32.8630483 99.8381814,32.8630483 C99.5771836,32.8630483 99.2039567,32.8630483 98.3165642,32.821031 L98.3165642,18.0178054 L99.2639862,18.0178054 C100.986572,18.0178054 101.659946,18.10184 102.531679,18.4274742 C103.650954,18.8491394 104.592524,19.6444929 105.199076,20.6806528 C105.561863,21.4080776 105.676702,21.8098681 105.848961,23.4301609 L105.848961,23.9186122 L106.835532,23.9186122 L106.835532,10.8065835 L105.92465,10.8065835 L105.90638,11.0324266 C105.687142,14.0392908 104.72406,15.5309055 102.471649,16.344991 C101.495517,16.7073903 100.837803,16.8098075 98.3531039,16.8098075 L98.3087343,16.8098075 L98.3087343,3.41678807 L101.759125,3.41678807 C103.177139,3.41558206 104.591754,3.556333 105.982069,3.83696123 C108.652077,4.4777253 110.62261,5.91944445 111.684871,8.01768417 C112.149447,8.88691739 112.444375,10.0450197 112.747132,12.1485115 L112.778452,12.355972 L113.673674,12.355972 L113.673674,2.26131188 L88.6178862,2.26131188 L88.6178862,3.31174478 L93.2349372,3.31174478 L93.2349372,32.9181961 L88.6178862,32.9181961 L88.6178862,33.968629 L114.456668,33.968629 L114.634146,22.9994834 L113.655405,22.9994834 L113.660625,23.2305786 Z" id="Path"></path>
            <path d="M146.167733,29.1078497 C146.105083,30.0502457 145.96151,30.7446427 145.731793,31.1962619 C145.316737,32.1621525 144.486623,32.7834551 143.614743,32.7834551 C142.795072,32.7834551 142.181623,32.0003005 141.97279,30.6637168 C141.84749,29.9980354 141.680423,28.729325 141.529019,27.2700471 C140.926012,22.9679181 139.850519,20.7437592 137.561182,19.0939136 C136.211595,18.128023 134.903775,17.5798148 132.959013,17.2247847 C134.338435,17.0566111 135.683757,16.6771248 136.947733,16.0996527 C139.597309,14.854437 141.176612,12.4919208 141.176612,9.78220604 C141.192032,7.425961 139.988507,5.22912569 137.994511,3.97380982 C136.263803,2.85389882 134.18852,2.36051146 130.82369,2.26131188 L116.406346,2.26131188 L116.406346,3.30551794 L120.737031,3.30551794 L120.737031,32.6738134 L116.375021,32.6738134 L116.260163,33.7180195 L130.309438,33.7180195 L130.309438,32.6738134 L125.762088,32.6738134 L125.762088,17.8173717 C126.759268,17.783435 127.383158,17.783435 128.544794,17.783435 C129.725751,17.7857099 130.90539,17.8624372 132.076691,18.0131603 C133.157405,18.1985069 134.013622,18.6344629 134.556589,19.2792602 C135.498951,20.367845 136.044528,22.1247217 136.438702,25.3539289 C136.501352,25.7533378 136.55617,26.1370835 136.610989,26.5573764 C136.657977,26.915017 136.697133,27.2178368 136.731068,27.4788883 C136.817212,28.126296 136.872031,28.5544205 136.958175,28.9433873 C137.068193,29.9017463 137.324375,30.8375941 137.717807,31.7183649 C138.500933,33.2115796 139.983651,33.968629 142.137246,33.968629 C144.52578,33.968629 146.136408,33.0001278 146.796844,31.1701567 C147.02993,30.5122916 147.146535,29.8188231 147.141419,29.1209023 L147.154472,28.8598508 L146.183396,28.8885665 L146.167733,29.1078497 Z M135.331884,13.8754938 C134.580083,15.1807514 133.183509,16.0787686 131.397982,16.405083 C130.058837,16.6661345 128.811057,16.7340079 126.265899,16.7340079 L125.762088,16.7340079 L125.762088,3.36294928 C126.177144,3.33162309 126.425134,3.33162309 127.004647,3.33162309 L128.033152,3.33162309 C128.845367,3.30976129 129.658137,3.34202908 130.466063,3.42821215 C131.617962,3.47037837 132.745635,3.77104287 133.765632,4.30795576 C135.451963,5.31039358 136.376051,7.25000634 136.376051,9.76654295 C136.375703,11.2017932 136.016778,12.6142133 135.331884,13.8754938 Z" id="Shape"></path>
            <path d="M172.300672,22.6550967 C172.291935,23.9023926 172.084079,25.1400706 171.685137,26.3203028 C170.861827,29.1289805 168.685379,31.2019895 165.55576,32.1504765 C163.854599,32.6759541 162.285894,32.8624987 159.340676,32.8624987 L159.005639,32.8624987 L159.005639,3.31226704 L163.940306,3.31226704 L163.940306,2.26131188 L148.780488,2.26131188 L148.780488,3.31226704 L153.665809,3.31226704 L153.665809,32.9176738 L148.780488,32.9176738 L148.780488,33.968629 L173.170732,33.968629 L173.170732,22.4081222 L172.300672,22.4081222 L172.300672,22.6550967 Z" id="Path"></path>
            <polygon id="Path" points="190.673969 2.26131188 190.673969 3.31016112 195.208929 3.31016112 187.065144 18.7984311 178.740271 3.31016112 182.519836 3.31016112 182.519836 2.26131188 169.918699 2.26131188 169.918699 3.31016112 173.12137 3.31016112 182.734554 20.4045636 182.734554 32.917151 178.30566 32.917151 178.178898 33.968629 192.790111 33.968629 192.790111 32.917151 187.605821 32.917151 187.605821 20.2021541 196.572263 3.31016112 200 3.31016112 200 2.26131188"></polygon>
            <path d="M194.272149,32.2286704 C194.519891,32.2286704 194.878691,32.2713831 194.878691,31.9439184 C194.878691,31.7132693 194.670815,31.6847941 194.445853,31.6847941 L193.981692,31.6847941 L193.981692,32.2201278 L194.272149,32.2286704 Z M195.126434,33.2651675 L194.813196,33.2651675 L194.29493,32.4564719 L193.981692,32.4564719 L193.981692,33.2651675 L193.69693,33.2651675 L193.69693,31.4968578 L194.48572,31.4968578 C194.639674,31.485359 194.793928,31.5148333 194.932796,31.5822834 C195.059328,31.6677289 195.134273,31.8111894 195.132129,31.963851 C195.132129,32.3112484 194.884387,32.4450818 194.562606,32.462167 L195.126434,33.2651675 Z M192.990721,32.3710463 C192.990721,33.0960341 193.57846,33.6837529 194.303472,33.6837529 C195.028485,33.6837529 195.616224,33.0960341 195.616224,32.3710463 C195.613275,32.0299499 195.473536,31.7043102 195.228345,31.4671579 C194.983155,31.2300057 194.653033,31.1011882 194.312015,31.1095952 C193.969168,31.1004245 193.63684,31.2284598 193.388775,31.4652893 C193.14071,31.7021187 192.997427,32.0281542 192.990721,32.3710463 M192.683178,32.3710463 C192.671621,31.7112087 193.06006,31.109837 193.666292,30.8490147 C194.272523,30.5881924 194.976279,30.719663 195.447451,31.1817578 C195.918622,31.6438527 196.063737,32.344899 195.814725,32.9560591 C195.565713,33.5672192 194.971976,33.9672479 194.312015,33.9685048 C193.883832,33.9738205 193.471194,33.8082294 193.165474,33.5083987 C192.859754,33.2085681 192.686176,32.7992377 192.683178,32.3710463" id="Shape"></path>
        </g>
    </g>
</svg>